<svg width="200" height="22" viewBox="0 0 200 22" fill="none" xmlns="http://www.w3.org/2000/svg">
<path d="M0.944102 22V0.399999H20.8641V4.75H5.3241V9.01H17.8341V13.39H5.3241V17.65H20.8641V22H0.944102ZM23.8829 22V13.66C23.8829 12.88 24.0729 12.17 24.4529 11.53C24.8529 10.89 25.3729 10.38 26.0129 10C26.6529 9.62 27.3629 9.43 28.1429 9.43H40.7429C40.7829 9.43 40.8229 9.41 40.8629 9.37C40.9029 9.33 40.9229 9.29 40.9229 9.25V4.84C40.9229 4.8 40.9029 4.76 40.8629 4.72C40.8229 4.68 40.7829 4.66 40.7429 4.66H28.3229C28.2829 4.66 28.2429 4.68 28.2029 4.72C28.1629 4.76 28.1429 4.8 28.1429 4.84V6.46H23.8829V4.63C23.8829 3.85 24.0729 3.14 24.4529 2.5C24.8529 1.86 25.3729 1.35 26.0129 0.969999C26.6529 0.589999 27.3629 0.399999 28.1429 0.399999H40.9229C41.6829 0.399999 42.3829 0.589999 43.0229 0.969999C43.6829 1.35 44.2029 1.86 44.5829 2.5C44.9829 3.14 45.1829 3.85 45.1829 4.63V9.46C45.1829 10.24 44.9829 10.95 44.5829 11.59C44.2029 12.23 43.6829 12.75 43.0229 13.15C42.3829 13.53 41.6829 13.72 40.9229 13.72H28.3229C28.2829 13.72 28.2429 13.74 28.2029 13.78C28.1629 13.82 28.1429 13.86 28.1429 13.9V17.56C28.1429 17.6 28.1629 17.64 28.2029 17.68C28.2429 17.72 28.2829 17.74 28.3229 17.74H45.1829V22H23.8829ZM48.8152 22V0.399999H68.7352V4.75H53.1952V9.01H65.7052V13.39H53.1952V17.65H68.7352V22H48.8152ZM85.4168 22C84.6368 22 83.9168 21.81 83.2568 21.43C82.5968 21.03 82.0768 20.51 81.6968 19.87C81.3168 19.21 81.1268 18.48 81.1268 17.68V15.85H85.4468V17.47C85.4468 17.53 85.4568 17.58 85.4768 17.62C85.5168 17.64 85.5568 17.65 85.5968 17.65H98.1668C98.2068 17.65 98.2468 17.64 98.2868 17.62C98.3268 17.58 98.3468 17.53 98.3468 17.47V13.54C98.3468 13.5 98.3268 13.47 98.2868 13.45C98.2468 13.41 98.2068 13.39 98.1668 13.39H85.4168C84.6368 13.39 83.9168 13.2 83.2568 12.82C82.5968 12.42 82.0768 11.89 81.6968 11.23C81.3168 10.57 81.1268 9.85 81.1268 9.07V4.72C81.1268 3.92 81.3168 3.2 81.6968 2.56C82.0768 1.9 82.5968 1.38 83.2568 0.999999C83.9168 0.599999 84.6368 0.399999 85.4168 0.399999H98.4068C99.1868 0.399999 99.8968 0.599999 100.537 0.999999C101.197 1.38 101.727 1.9 102.127 2.56C102.527 3.2 102.727 3.92 102.727 4.72V6.55H98.3468V4.93C98.3468 4.87 98.3268 4.83 98.2868 4.81C98.2468 4.77 98.2068 4.75 98.1668 4.75H85.5968C85.5568 4.75 85.5168 4.77 85.4768 4.81C85.4568 4.83 85.4468 4.87 85.4468 4.93V8.86C85.4468 8.9 85.4568 8.94 85.4768 8.98C85.5168 9 85.5568 9.01 85.5968 9.01H98.4068C99.1868 9.01 99.8968 9.21 100.537 9.61C101.197 9.99 101.727 10.51 102.127 11.17C102.527 11.83 102.727 12.55 102.727 13.33V17.68C102.727 18.48 102.527 19.21 102.127 19.87C101.727 20.51 101.197 21.03 100.537 21.43C99.8968 21.81 99.1868 22 98.4068 22H85.4168ZM106.001 22V0.429999H123.251C124.051 0.429999 124.771 0.629999 125.411 1.03C126.071 1.41 126.601 1.93 127.001 2.59C127.401 3.25 127.601 3.97 127.601 4.75V10.45C127.601 11.23 127.401 11.95 127.001 12.61C126.601 13.25 126.071 13.77 125.411 14.17C124.771 14.55 124.051 14.74 123.251 14.74L110.321 14.77V22H106.001ZM110.501 10.39H123.041C123.101 10.39 123.141 10.38 123.161 10.36C123.201 10.32 123.221 10.28 123.221 10.24V4.93C123.221 4.87 123.201 4.83 123.161 4.81C123.141 4.77 123.101 4.75 123.041 4.75H110.501C110.441 4.75 110.391 4.77 110.351 4.81C110.331 4.83 110.321 4.87 110.321 4.93V10.24C110.321 10.28 110.331 10.32 110.351 10.36C110.391 10.38 110.441 10.39 110.501 10.39ZM129.821 22V4.72C129.821 3.92 130.011 3.2 130.391 2.56C130.791 1.9 131.311 1.38 131.951 0.999999C132.611 0.599999 133.341 0.399999 134.141 0.399999H147.071C147.871 0.399999 148.591 0.599999 149.231 0.999999C149.891 1.38 150.421 1.9 150.821 2.56C151.221 3.2 151.421 3.92 151.421 4.72V22H147.041V14.89H134.141V22H129.821ZM134.141 10.57H147.041V4.93C147.041 4.87 147.021 4.83 146.981 4.81C146.961 4.77 146.921 4.75 146.861 4.75H134.321C134.261 4.75 134.211 4.77 134.171 4.81C134.151 4.83 134.141 4.87 134.141 4.93V10.57ZM159.159 22C158.359 22 157.629 21.81 156.969 21.43C156.329 21.03 155.809 20.51 155.409 19.87C155.029 19.21 154.839 18.48 154.839 17.68V4.72C154.839 3.92 155.029 3.2 155.409 2.56C155.809 1.9 156.329 1.38 156.969 0.999999C157.629 0.599999 158.359 0.399999 159.159 0.399999H176.379V4.75H160.179C159.859 4.75 159.609 4.84 159.429 5.02C159.249 5.18 159.159 5.43 159.159 5.77V16.63C159.159 16.95 159.249 17.2 159.429 17.38C159.609 17.56 159.859 17.65 160.179 17.65H176.379V22H159.159ZM179.567 22V0.399999H199.487V4.75H183.947V9.01H196.457V13.39H183.947V17.65H199.487V22H179.567Z" fill="black"/>
</svg>
